<svg width="18" height="18" viewBox="0 0 18 18" fill="#353A3D" xmlns="http://www.w3.org/2000/svg">
<path fill-rule="evenodd" clip-rule="evenodd" d="M4.8 4.2C4.64087 4.2 4.48826 4.26321 4.37574 4.37573C4.26321 4.48826 4.2 4.64087 4.2 4.8V12.9515L5.57574 11.5757C5.68826 11.4632 5.84087 11.4 6 11.4H13.2C13.3591 11.4 13.5117 11.3368 13.6243 11.2243C13.7368 11.1117 13.8 10.9591 13.8 10.8V4.8C13.8 4.64087 13.7368 4.48826 13.6243 4.37573C13.5117 4.26321 13.3591 4.2 13.2 4.2H4.8ZM3.52721 3.52721C3.86477 3.18964 4.32261 3 4.8 3H13.2C13.6774 3 14.1352 3.18964 14.4728 3.52721C14.8104 3.86477 15 4.32261 15 4.8V10.8C15 11.2774 14.8104 11.7352 14.4728 12.0728C14.1352 12.4103 13.6774 12.6 13.2 12.6H6.24853L4.02426 14.8242C3.85267 14.9958 3.59459 15.0472 3.37039 14.9543C3.14619 14.8614 3 14.6427 3 14.4V4.8C3 4.32261 3.18964 3.86477 3.52721 3.52721Z" />
</svg>
